<mxfile host="app.diagrams.net" modified="2023-03-30T06:19:41.712Z" agent="Mozilla/5.0 (Windows NT 10.0; Win64; x64) AppleWebKit/537.36 (KHTML, like Gecko) Chrome/111.0.0.0 Safari/537.36" version="21.1.1" etag="gaq_x_OeRPqdEk8YJAJI" type="github">
  <diagram name="‫עמוד-1‬" id="QJuiEvMb9h7c6q4cuIkA">
    <mxGraphModel>
      <root>
        <mxCell id="0" />
        <mxCell id="1" parent="0" />
      </root>
    </mxGraphModel>
  </diagram>
</mxfile>
